PathFileType	4	(X/Y/Z)	S:\OneDrive - The University of Tokyo\ìåëÂéˆã∆\ÉoÉCÉÅÉJ\ë™íË\hirabayashi_2\Trimmed\Trimmed_Trimmed_ShSs3-Bar.trc
DataRate	CameraRate	NumFrames	NumMarkers	Units	OrigDataRate	OrigDataStartFrame	OrigNumFrames
200.00	200.00	      17	12	mm	200.00	215	      1718
Frame#	Time	BarR0			BarR50			BarR100			BarR130			BarR180			BarR230			BarL0			BarL50			BarL100			BarL130			BarL180			BarL230			
		X1	Y1	Z1	X2	Y2	Z2	X3	Y3	Z3	X4	Y4	Z4	X5	Y5	Z5	X6	Y6	Z6	X7	Y7	Z7	X8	Y8	Z8	X9	Y9	Z9	X10	Y10	Z10	X11	Y11	Z11	X12	Y12	Z12	

215	1.070	-575.14197	2755.36719	1663.49866	-599.22247	2305.85962	1657.83459	-631.37079	1851.94629	1654.84155	-655.61505	1349.74561	1654.54578	-683.34796	902.95563	1658.49609	-710.61078	455.28860	1663.91479	-1115.21069	2808.44702	1664.27295	-1143.42065	2356.75244	1664.37390	-1175.16479	1906.67126	1663.17212	-1202.98083	1405.00696	1662.86890	-1227.14575	953.69916	1664.55334	-1246.07300	507.00021	1667.42151	
216	1.075	-575.14740	2755.34009	1663.49646	-599.28284	2305.81885	1657.84546	-631.46033	1851.92773	1654.85657	-655.66656	1349.70020	1654.56470	-683.36224	902.93835	1658.49622	-710.57611	455.24768	1663.90112	-1115.34473	2808.42627	1664.25049	-1143.44617	2356.67969	1664.28162	-1175.25391	1906.65918	1662.97156	-1203.11731	1405.01477	1662.70496	-1227.19458	953.69714	1664.44556	-1246.10559	507.01599	1667.42529	
217	1.080	-575.17676	2755.33423	1663.49683	-599.31775	2305.80396	1657.80884	-631.48456	1851.88818	1654.85315	-655.69238	1349.65173	1654.51318	-683.35425	902.94385	1658.50720	-710.53998	455.24582	1663.90491	-1115.37158	2808.38037	1664.26721	-1143.46838	2356.65869	1664.18433	-1175.31274	1906.65125	1662.75928	-1203.31726	1404.72681	1662.52124	-1227.23792	953.70764	1664.34534	-1246.10742	507.00629	1667.42334	
218	1.085	-575.15955	2755.28101	1663.50098	-599.33557	2305.76978	1657.82019	-631.50940	1851.87878	1654.85120	-655.71771	1349.61487	1654.48511	-683.33337	902.85608	1658.50464	-710.52618	455.22845	1663.90173	-1115.36279	2808.39136	1664.26147	-1143.48877	2356.66821	1664.12195	-1175.36389	1906.65259	1662.60083	-1203.41211	1404.75378	1662.36084	-1227.21606	953.73151	1664.24976	-1246.10583	507.00214	1667.40833	
219	1.090	-575.19269	2755.26587	1663.48584	-599.30548	2305.73755	1657.80884	-631.51440	1851.81824	1654.80017	-655.68658	1349.57532	1654.46399	-683.36578	902.82135	1658.46216	-710.54309	455.17053	1663.89319	-1115.32874	2808.36011	1664.27795	-1143.47705	2356.65112	1664.06592	-1175.33875	1906.66907	1662.48376	-1203.44043	1404.75745	1662.25891	-1227.16492	953.74933	1664.16553	-1246.05359	507.03131	1667.40979	
220	1.095	-575.19446	2755.20215	1663.48340	-599.31921	2305.69653	1657.72229	-631.48633	1851.74292	1654.76672	-655.67957	1349.59424	1654.44836	-683.34790	902.82452	1658.43323	-710.58154	455.14325	1663.88159	-1115.23511	2808.38354	1664.25818	-1143.45935	2356.66626	1664.03748	-1175.27393	1906.66663	1662.38940	-1203.34070	1405.01379	1662.10767	-1227.06763	953.77209	1664.12500	-1245.99084	507.04257	1667.40698	
221	1.100	-575.16620	2755.17676	1663.49011	-599.31238	2305.68384	1657.69507	-631.44513	1851.73120	1654.72156	-655.62933	1349.57642	1654.39734	-683.32422	902.78436	1658.39429	-710.62115	455.11835	1663.86682	-1115.17786	2808.37231	1664.25366	-1143.41968	2356.65552	1664.02368	-1175.14905	1906.67249	1662.35535	-1203.25085	1404.98975	1662.09302	-1226.98022	953.74133	1664.11536	-1245.92090	507.03061	1667.40063	
222	1.105	-575.19739	2755.15210	1663.49817	-599.32892	2305.69165	1657.67114	-631.40967	1851.73328	1654.69409	-655.61340	1349.55762	1654.32349	-683.35046	902.76526	1658.36267	-710.67914	455.13358	1663.86865	-1115.15271	2808.37256	1664.27783	-1143.38074	2356.65405	1664.01929	-1175.00659	1906.65015	1662.37354	-1203.06299	1404.99731	1662.09973	-1226.82227	953.74011	1664.13428	-1245.88025	507.04453	1667.39099	
223	1.110	-575.19312	2755.16138	1663.48181	-599.31561	2305.67114	1657.62866	-631.39526	1851.73962	1654.64746	-655.59821	1349.57080	1654.27869	-683.34711	902.79022	1658.32825	-710.70715	455.12247	1663.86572	-1115.10693	2808.36450	1664.28491	-1143.35449	2356.62671	1664.06250	-1174.86194	1906.62354	1662.41467	-1202.85901	1404.97668	1662.18079	-1226.72827	953.73743	1664.16382	-1245.84387	507.05157	1667.36584	
224	1.115	-575.17322	2755.21143	1663.49194	-599.28741	2305.70728	1657.65564	-631.33917	1851.79480	1654.64819	-655.59424	1349.58179	1654.25281	-683.37390	902.79547	1658.31775	-710.72498	455.15588	1663.88611	-1115.07715	2808.36401	1664.27356	-1143.28760	2356.64600	1664.10962	-1174.75378	1906.59119	1662.54211	-1202.68262	1404.97986	1662.32056	-1226.61816	953.72510	1664.22058	-1245.81067	507.03424	1667.36462	
225	1.120	-575.15942	2755.25366	1663.47266	-599.27747	2305.72510	1657.66455	-631.33160	1851.82324	1654.66125	-655.60059	1349.61963	1654.26965	-683.36621	902.86218	1658.33740	-710.73883	455.21283	1663.87756	-1115.09216	2808.39160	1664.27600	-1143.28809	2356.66089	1664.15967	-1174.69299	1906.59924	1662.70251	-1202.59961	1404.97876	1662.49890	-1226.57751	953.67041	1664.33191	-1245.80920	507.01373	1667.38086	
226	1.125	-575.14050	2755.28955	1663.49158	-599.26605	2305.77490	1657.70374	-631.32697	1851.81897	1654.68835	-655.59174	1349.64368	1654.33020	-683.34833	902.90485	1658.35303	-710.71185	455.22183	1663.90393	-1115.00183	2808.38770	1664.27673	-1143.27856	2356.66797	1664.22961	-1174.67542	1906.60168	1662.88818	-1202.53931	1404.98511	1662.66028	-1226.55884	953.62592	1664.45068	-1245.80640	507.04175	1667.39465	
227	1.130	-575.15381	2755.33032	1663.49146	-599.24915	2305.77319	1657.73547	-631.47675	1852.16418	1654.80408	-655.60114	1349.71008	1654.41528	-683.34235	902.89197	1658.43091	-710.66174	455.25748	1663.89819	-1114.97961	2808.41357	1664.25476	-1143.27307	2356.70557	1664.30139	-1174.66797	1906.67920	1663.07996	-1202.57910	1405.03284	1662.78467	-1226.62903	953.63245	1664.56177	-1245.82556	507.04330	1667.38843	
228	1.135	-575.16571	2755.35840	1663.47925	-599.22089	2305.85693	1657.76855	-631.45209	1852.17566	1654.87378	-655.59271	1349.72009	1654.50513	-683.27319	902.94354	1658.49121	-710.60425	455.28323	1663.90674	-1115.03271	2808.44629	1664.26453	-1143.29468	2356.74365	1664.38257	-1174.72839	1906.71497	1663.24780	-1202.64160	1405.03369	1662.92554	-1226.70935	953.64874	1664.65686	-1245.84863	507.05548	1667.40161	
229	1.140	-575.21912	2755.42749	1663.47632	-599.20874	2305.85400	1657.86670	-631.48145	1852.22192	1654.93225	-655.58545	1349.78186	1654.60254	-683.26770	902.94604	1658.56470	-710.55292	455.28568	1663.90112	-1115.00928	2808.49341	1664.27063	-1143.31335	2356.78979	1664.43982	-1174.79980	1906.75098	1663.39978	-1202.74365	1405.08496	1663.02344	-1226.76538	953.67682	1664.70618	-1245.89453	507.06320	1667.40955	
230	1.145	-575.22906	2755.44238	1663.49133	-599.21393	2305.87256	1657.92834	-631.50909	1852.31531	1655.00720	-655.58881	1349.77173	1654.69470	-683.26563	902.99835	1658.65442	-710.51532	455.33218	1663.91809	-1115.01355	2808.52759	1664.26184	-1143.33960	2356.83228	1664.46899	-1174.92700	1906.78577	1663.49658	-1202.82544	1405.12341	1663.07935	-1226.85278	953.71674	1664.74329	-1245.94910	507.06299	1667.41907	
231	1.150	-575.24432	2755.44653	1663.49341	-599.23395	2305.89575	1657.98840	-631.47900	1852.32349	1655.04590	-655.60522	1349.81055	1654.79211	-683.26178	903.00934	1658.71863	-710.51300	455.32825	1663.91895	-1115.06360	2808.57910	1664.27283	-1143.35901	2356.86548	1664.49341	-1175.03918	1906.83203	1663.52881	-1202.93005	1405.14160	1663.10706	-1226.95068	953.73541	1664.76147	-1246.00049	507.08627	1667.43774	
